<?xml version="1.0" encoding="utf-8"?>
<!-- Generator: Adobe Illustrator 21.1.0, SVG Export Plug-In . SVG Version: 6.00 Build 0)  -->
<svg version="1.1" id="Ebene_1" xmlns="http://www.w3.org/2000/svg" xmlns:xlink="http://www.w3.org/1999/xlink" x="0px" y="0px"
	 viewBox="0 0 100 125" style="enable-background:new 0 0 100 125;" xml:space="preserve">
<path d="M44.8,19.7c2.9-2.9,7.7-2.9,10.6,0l3.5-3.5c-4.9-4.9-12.8-4.9-17.7,0L44.8,19.7z"/>
<path d="M60.7,14.4l3.5-3.5c-7.8-7.8-20.5-7.8-28.3,0l3.5,3.5C45.4,8.5,54.9,8.5,60.7,14.4z"/>
<circle cx="41.2" cy="60" r="3.8"/>
<circle cx="58.8" cy="60" r="3.8"/>
<path d="M71.2,25H55.1c0-2.8-2.2-5-5-5s-5,2.2-5,5H28.8C21.2,25,15,31.2,15,38.7v42.5C15,88.8,21.2,95,28.8,95h42.5
	C78.8,95,85,88.8,85,81.2V38.7C85,31.2,78.8,25,71.2,25z M77.5,81.2c0,3.4-2.8,6.2-6.2,6.2H28.8c-3.4,0-6.2-2.8-6.2-6.2V38.7
	c0-3.4,2.8-6.2,6.2-6.2h42.5c3.4,0,6.2,2.8,6.2,6.2V81.2z"/>
<path d="M50,37.5c-12.4,0-22.5,10.1-22.5,22.5S37.6,82.5,50,82.5S72.5,72.4,72.5,60S62.4,37.5,50,37.5z M50,77.5
	c-9.6,0-17.5-7.9-17.5-17.5S40.4,42.5,50,42.5S67.5,50.4,67.5,60S59.6,77.5,50,77.5z"/>
</svg>
