<?xml version="1.0" encoding="utf-8"?>
<!-- Generator: Adobe Illustrator 21.1.0, SVG Export Plug-In . SVG Version: 6.00 Build 0)  -->
<svg version="1.1" id="Ebene_1" xmlns="http://www.w3.org/2000/svg" xmlns:xlink="http://www.w3.org/1999/xlink" x="0px" y="0px"
	 viewBox="0 0 100 125" style="enable-background:new 0 0 100 125;" xml:space="preserve">
<path d="M50,5L50,5C25.1,5,5,25.1,5,50l0,0c0,24.9,20.1,45,45,45l0,0c24.9,0,45-20.1,45-45l0,0C95,25.1,74.9,5,50,5z M50,87.5
	c-20.7,0-37.5-16.8-37.5-37.5S29.3,12.5,50,12.5S87.5,29.3,87.5,50S70.7,87.5,50,87.5z"/>
<path d="M60,55h-5v6.8l0.6,0.7c1.2,1.4,1.9,3.1,1.9,4.9c0,4.1-3.4,7.5-7.5,7.5s-7.5-3.4-7.5-7.5c0-1.8,0.7-3.6,1.9-4.9l0.6-0.7V30
	c0-2.8,2.2-5,5-5s5,2.2,5,5v2.5h5V30c0-5.5-4.5-10-10-10s-10,4.5-10,10v30c-1.6,2.2-2.5,4.8-2.5,7.5C37.5,74.4,43.1,80,50,80
	s12.5-5.6,12.5-12.5c0-2.7-0.9-5.3-2.5-7.5V55z"/>
<rect x="55" y="50" width="5" height="2.5"/>
<rect x="55" y="45" width="5" height="2.5"/>
<rect x="55" y="40" width="5" height="2.5"/>
<rect x="55" y="35" width="5" height="2.5"/>
<path d="M47.5,45v18.2C46,64.1,45,65.7,45,67.5c0,2.8,2.2,5,5,5s5-2.2,5-5c0-1.8-1-3.4-2.5-4.3V45H47.5z"/>
</svg>
