<?xml version="1.0" encoding="utf-8"?>
<!-- Generator: Adobe Illustrator 21.1.0, SVG Export Plug-In . SVG Version: 6.00 Build 0)  -->
<svg version="1.1" id="Ebene_1" xmlns="http://www.w3.org/2000/svg" xmlns:xlink="http://www.w3.org/1999/xlink" x="0px" y="0px"
	 viewBox="0 0 100 125" style="enable-background:new 0 0 100 125;" xml:space="preserve">
<path d="M35,66.3V80c0,2.8,2.2,5,5,5c0,5.5,4.5,10,10,10s10-4.5,10-10c2.8,0,5-2.2,5-5V66.3C75.4,60.9,82.5,50,82.5,37.5
	C82.5,19.6,67.9,5,50,5S17.5,19.6,17.5,37.5C17.5,50,24.6,60.9,35,66.3z M50,90c-2.8,0-5-2.2-5-5h10C55,87.8,52.8,90,50,90z
	 M57.5,77.5h-15v-2.8l15-1.9V77.5z M57.5,66.3v1.5l-15,1.9v-3.3V65h15V66.3z M50,12.5c13.8,0,25,11.2,25,25
	c0,9.3-5.2,17.8-13.5,22.2L60.9,60H39.1l-0.6-0.3C30.2,55.3,25,46.8,25,37.5C25,23.7,36.2,12.5,50,12.5z"/>
<circle cx="50.1" cy="45" r="5"/>
<path d="M41.3,36.2l3.5,3.5c2.9-2.9,7.7-2.9,10.6,0l3.5-3.5C54.1,31.3,46.2,31.3,41.3,36.2z"/>
<path d="M60.7,34.4l3.5-3.5c-7.8-7.8-20.5-7.8-28.3,0l3.5,3.5C45.4,28.5,54.9,28.5,60.7,34.4z"/>
</svg>
